<?xml version="1.0" encoding="UTF-8" standalone="no"?>
<!-- Created with Inkscape (http://www.inkscape.org/) -->

<svg
   width="7.9737611mm"
   height="8.9794512mm"
   viewBox="0 0 7.9737611 8.9794512"
   version="1.1"
   id="svg1"
   inkscape:version="1.4.2 (ebf0e940, 2025-05-08)"
   sodipodi:docname="coros-logo.svg"
   xmlns:inkscape="http://www.inkscape.org/namespaces/inkscape"
   xmlns:sodipodi="http://sodipodi.sourceforge.net/DTD/sodipodi-0.dtd"
   xmlns="http://www.w3.org/2000/svg"
   xmlns:svg="http://www.w3.org/2000/svg">
  <sodipodi:namedview
     id="namedview1"
     pagecolor="#ffffff"
     bordercolor="#000000"
     borderopacity="0.25"
     inkscape:showpageshadow="2"
     inkscape:pageopacity="0.0"
     inkscape:pagecheckerboard="0"
     inkscape:deskcolor="#d1d1d1"
     inkscape:document-units="mm"
     inkscape:zoom="2.9647587"
     inkscape:cx="48.907859"
     inkscape:cy="60.881852"
     inkscape:window-width="1512"
     inkscape:window-height="766"
     inkscape:window-x="0"
     inkscape:window-y="38"
     inkscape:window-maximized="0"
     inkscape:current-layer="layer1" />
  <defs
     id="defs1" />
  <g
     inkscape:label="Layer 1"
     inkscape:groupmode="layer"
     id="layer1"
     transform="translate(-63.764579,-152.39996)">
    <path
       class="cls-2"
       d="m 70.099297,159.09389 c -8.5e-4,0.0238 -0.04463,0.0514 -0.07354,0.0684 -0.785942,0.45311 -1.572309,0.9058 -2.358675,1.35807 -0.195529,0.11264 -0.391908,0.22273 -0.584462,0.33878 -0.05951,0.0361 -0.10244,0.0348 -0.162799,0 -1.050756,-0.60742 -2.103212,-1.21228 -3.155242,-1.81757 v -3.57351 c 0.163649,-0.0999 0.326448,-0.2002 0.501574,-0.30689 0.02508,0.2155 0.04888,0.41783 0.07226,0.61974 0.05228,0.45057 0.10414,0.90113 0.156423,1.35127 0.03698,0.3222 0.07311,0.6444 0.114767,0.96575 0.0072,0.0391 0.02975,0.0731 0.06291,0.0948 0.870954,0.50455 1.744034,1.00527 2.614988,1.5094 0.04973,0.0281 0.08671,0.0196 0.133044,0 0.861603,-0.36641 1.723631,-0.73239 2.586084,-1.09752 0.02678,-0.011 0.05398,-0.0204 0.09606,-0.037 0,0.18533 0.003,0.35578 -0.0034,0.52623 z"
       id="path1"
       style="fill:#ed5662;fill-rule:evenodd;stroke-width:0px" />
    <path
       class="cls-2"
       d="m 71.307326,154.76845 -0.465018,-0.20148 c -0.738335,-0.31965 -1.475819,-0.64015 -2.213304,-0.96107 -0.05228,-0.0225 -0.09266,-0.0187 -0.141971,0.0102 -0.859477,0.49988 -1.719804,0.99848 -2.580982,1.49495 -0.05781,0.034 -0.08246,0.0723 -0.09011,0.14027 -0.05398,0.46544 -0.114767,0.92961 -0.171726,1.39421 -0.05653,0.46204 -0.113067,0.92366 -0.169175,1.3857 -0.0034,0.0293 -0.0094,0.0582 -0.01573,0.10117 -0.154298,-0.0888 -0.30137,-0.16875 -0.441641,-0.25844 -0.02465,-0.0157 -0.03145,-0.074 -0.03145,-0.11264 -0.0017,-0.6529 -0.0021,-1.30537 -8.51e-4,-1.95784 8.51e-4,-0.48457 0.0055,-0.9683 0.0051,-1.45244 0,-0.0642 0.0255,-0.0948 0.07736,-0.12455 1.01675,-0.58786 2.033076,-1.17657 3.048977,-1.76613 0.03018,-0.0174 0.05781,-0.0404 0.08671,-0.0604 h 0.01828 c 0.238035,0.13984 0.475221,0.28096 0.714106,0.41954 0.767239,0.44419 1.534902,0.88625 2.301291,1.33087 0.02763,0.0162 0.06589,0.0476 0.06674,0.0727 0.006,0.17938 0.0034,0.35833 0.0034,0.54536 z"
       id="path2"
       style="fill:#ed5662;fill-rule:evenodd;stroke-width:0px" />
    <path
       class="cls-2"
       d="m 71.73834,159.54106 c 0,0.051 -0.01573,0.0799 -0.06078,0.10584 -0.986571,0.56746 -1.972292,1.13662 -2.957588,1.70705 -0.05696,0.0332 -0.100315,0.034 -0.156423,0.002 -0.139846,-0.0799 -0.282667,-0.15388 -0.436115,-0.23676 l 0.348552,-0.25972 c 0.666074,-0.49435 1.331722,-0.98869 1.999496,-1.48177 0.05653,-0.0412 0.07864,-0.085 0.07864,-0.156 -0.003,-0.98317 -0.0038,-1.96676 -0.003,-2.95036 0,-0.0731 -0.0204,-0.12029 -0.08034,-0.16535 -0.753211,-0.56406 -1.503447,-1.13152 -2.254109,-1.69855 -0.01913,-0.014 -0.03656,-0.0297 -0.06036,-0.0497 0.152173,-0.088 0.295419,-0.17513 0.444191,-0.25334 0.02423,-0.0132 0.07354,0.003 0.102866,0.02 0.788066,0.45524 1.575708,0.91133 2.362925,1.36785 0.202755,0.11732 0.40466,0.23591 0.60869,0.35153 0.04463,0.0251 0.06206,0.0536 0.06206,0.10584 h -4.25e-4 c -8.5e-4,1.1974 -4.25e-4,2.39438 0.0017,3.59136 z"
       id="path3"
       style="fill:#ed5662;fill-rule:evenodd;stroke-width:0px" />
  </g>
</svg>
