<?xml version="1.0" encoding="UTF-8" standalone="no"?>
<svg
   width="28.177999"
   height="19.952515"
   viewBox="0 0 28.178 19.952515"
   fill="none"
   version="1.1"
   id="svg24"
   sodipodi:docname="wandrer-ridewithgps.svg"
   inkscape:version="1.3.2 (091e20e, 2023-11-25)"
   inkscape:export-filename="wandrer-ridewithgps.png"
   inkscape:export-xdpi="523.72437"
   inkscape:export-ydpi="523.72437"
   xmlns:inkscape="http://www.inkscape.org/namespaces/inkscape"
   xmlns:sodipodi="http://sodipodi.sourceforge.net/DTD/sodipodi-0.dtd"
   xmlns="http://www.w3.org/2000/svg"
   xmlns:svg="http://www.w3.org/2000/svg">
  <defs
     id="defs24">
    <linearGradient
       id="linear-gradient"
       x1="123.76"
       y1="-14.91"
       x2="123.76"
       y2="264.16"
       gradientUnits="userSpaceOnUse"
       gradientTransform="matrix(0.14462329,0,0,0.14462329,64.28572,5.7421577)">
      <stop
         offset="0.07"
         stop-color="#df1b6c"
         id="stop1" />
      <stop
         offset="0.91"
         stop-color="#be237d"
         id="stop2" />
    </linearGradient>
  </defs>
  <sodipodi:namedview
     id="namedview24"
     pagecolor="#ffffff"
     bordercolor="#666666"
     borderopacity="1.0"
     inkscape:showpageshadow="2"
     inkscape:pageopacity="0.0"
     inkscape:pagecheckerboard="0"
     inkscape:deskcolor="#d1d1d1"
     inkscape:zoom="12.923077"
     inkscape:cx="-10.214286"
     inkscape:cy="13.619048"
     inkscape:window-width="1280"
     inkscape:window-height="705"
     inkscape:window-x="0"
     inkscape:window-y="25"
     inkscape:window-maximized="0"
     inkscape:current-layer="svg24" />
  <g
     id="g25"
     transform="translate(-111,-12.499585)">
    <path
       fill-rule="evenodd"
       clip-rule="evenodd"
       d="m 128.056,24.1533 c -0.226,0.2388 -0.482,0.5288 -0.78,0.8934 -0.587,0.7207 -1.563,1.8785 -2.15,2.5737 -0.213,0.2537 -0.375,0.4456 -0.447,0.533 -2.866,3.4479 -4.527,4.1196 -6.352,4.2497 -0.322,0.032 -0.679,0.049 -1.073,0.049 -3.166,0 -6.254,-2.6632 -6.254,-6.0194 0,-3.1131 2.215,-5.6847 5.194,-6.0216 h 0.009 c 0.236,-0.0277 0.688,-0.0789 1.243,0 0.488,0.0704 1.254,0.2964 1.373,0.6589 -0.772,-0.1599 -1.181,-0.1301 -1.599,-0.081 -1.092,0.1279 -1.859,0.452 -2.412,0.8572 -1.234,0.9019 -2.07,2.273 -2.07,3.9276 0,2.6462 2.196,4.787 4.819,4.787 1.326,0 2.561,-0.5203 3.456,-1.3753 0.184,-0.1514 0.339,-0.2943 0.461,-0.4244 1.175,-1.2644 3.435,-3.9553 3.435,-4.5438 0,-0.6568 -1.467,-2.1558 -2.985,-3.0663 -2.16,-1.2943 -2.248,-2.2879 -2.248,-3.047 0,-2.435 3.753,-3.7038 7.348,-3.3562 0.879,3.2261 3.42,3.4074 3.874,3.4394 h 0.005 c 1.328,0.0959 1.981,-0.0107 2.772,-0.2005 0.791,-0.1897 1.042,-0.3688 1.042,-0.3688 0,0 0,0.2729 -0.61,0.678 -0.609,0.4052 -2.302,1.0235 -3.452,1.0235 -2.441,0 -3.767,-1.0405 -4.989,-2.4095 -2.768,0.2218 -3.03,1.0385 -2.855,1.2986 0.403,0.6013 4.682,3.5353 5.06,3.4713 0.113,-0.0191 0.307,-0.1236 0.573,-0.2686 0.864,-0.467 2.501,-1.3519 4.747,-1.1579 3.3,0.0896 5.987,2.755 5.987,6.0621 0,3.3072 -2.64,6.0898 -6.158,6.0898 -2.911,0 -4.847,-2.0704 -4.512,-2.5694 0.004,-0.0064 0.009,-0.0107 0.011,-0.0171 0.889,0.8316 2.343,1.7101 3.81,1.7101 2.806,0 5.079,-2.1685 5.079,-4.8445 0,-2.676 -1.833,-4.4458 -4.625,-4.6974 -1.207,-0.1088 -1.904,0.1237 -2.648,0.4989 -0.64,0.3199 -1.458,1.0299 -2.09,1.6781 0,-0.0042 0,-0.0064 0.003,-0.0106 z"
       fill="#fa6400"
       id="path12" />
    <path
       fill-rule="evenodd"
       clip-rule="evenodd"
       d="m 130.64,16.6242 c 0.887,-0.032 1.885,-0.8081 1.843,-1.9787 -0.041,-1.1707 -1.22,-1.8828 -2.297,-2.0534 -2.145,-0.3412 -4.311,0.2964 -4.898,1.3369 0,0 0.231,-0.0895 0.548,-0.1727 0.828,-0.2175 1.655,-0.113 2.335,0.2836 0.303,0.177 0.354,0.5693 0.354,0.6162 0,1.3967 1.228,2.0001 2.115,1.9681 z"
       fill="#fa6400"
       id="path13" />
  </g>
</svg>
