<?xml version="1.0" encoding="UTF-8" standalone="no"?>
<!-- Created with Inkscape (http://www.inkscape.org/) -->

<svg
   width="6.3499942mm"
   height="6.3510404mm"
   viewBox="0 0 6.3499942 6.3510404"
   version="1.1"
   id="svg17"
   xmlns="http://www.w3.org/2000/svg"
   xmlns:svg="http://www.w3.org/2000/svg">
  <defs
     id="defs14" />
  <g
     id="layer1"
     transform="translate(-43.09604,-86.940616)">
    <path
       style="fill:#e72b6a;fill-opacity:1;stroke-width:0.0129596"
       d="m 43.632678,93.272958 c -0.249517,-0.05422 -0.462661,-0.270192 -0.516276,-0.523134 -0.02713,-0.128014 -0.02716,-5.137335 -2.8e-5,-5.263176 0.05795,-0.268766 0.257807,-0.469216 0.524109,-0.525662 0.128118,-0.02716 5.13664,-0.02716 5.264757,0 0.26461,0.05609 0.485096,0.284203 0.528782,0.547077 0.01076,0.06477 0.01376,0.783569 0.0111,2.661221 l -0.0036,2.572479 -0.03342,0.08579 c -0.07209,0.185072 -0.168901,0.298898 -0.323153,0.379955 -0.171126,0.08992 0.0054,0.08468 -2.818531,0.08379 -2.09487,-6.62e-4 -2.567515,-0.004 -2.633703,-0.01833 z m 3.758953,-0.91848 c 0.339432,-0.04819 0.553034,-0.146239 0.758533,-0.348192 0.212525,-0.20886 0.320378,-0.448165 0.366921,-0.814125 0.02489,-0.195708 0.02457,-1.941917 -3.92e-4,-2.143882 -0.04478,-0.362308 -0.153457,-0.608343 -0.359887,-0.814774 -0.209244,-0.209245 -0.456302,-0.317475 -0.821254,-0.359772 -0.208164,-0.02412 -1.913374,-0.02472 -2.118893,-7.34e-4 -0.440069,0.05135 -0.746195,0.215565 -0.958832,0.514343 -0.227161,0.319186 -0.262065,0.593658 -0.248857,1.956899 0.0073,0.756679 0.01539,0.8884 0.06702,1.095085 0.107609,0.430772 0.415759,0.750053 0.836114,0.866317 0.248863,0.06883 0.448039,0.07846 1.509793,0.07301 0.65865,-0.0034 0.858303,-0.0084 0.969733,-0.02418 z m -2.019461,-0.39227 c -0.147578,-0.01408 -0.335217,-0.04668 -0.405768,-0.07051 -0.209461,-0.07074 -0.398812,-0.260584 -0.46812,-0.469348 -0.06801,-0.20485 -0.07216,-0.2796 -0.07216,-1.298428 0,-0.847239 0.0024,-0.96139 0.02329,-1.092925 0.03863,-0.243691 0.09869,-0.376848 0.228524,-0.506681 0.129037,-0.129038 0.260685,-0.189302 0.502546,-0.230052 0.126404,-0.0213 0.231484,-0.02356 1.092387,-0.02355 1.025869,1.2e-5 1.099952,0.0041 1.304907,0.07215 0.210694,0.06995 0.401545,0.2613 0.473656,0.474899 0.06016,0.178193 0.06483,0.257766 0.07077,1.206197 0.0061,0.9657 -0.0016,1.13292 -0.06197,1.351639 -0.08323,0.301602 -0.305588,0.493355 -0.646922,0.557878 -0.143192,0.02707 -0.185112,0.02828 -1.069166,0.03092 -0.506072,0.0015 -0.943459,5.24e-4 -0.97197,-0.0022 z m 1.087774,-0.698056 c 0.249566,-0.04352 0.4409,-0.139369 0.614861,-0.308015 0.333957,-0.323754 0.443372,-0.769428 0.297275,-1.21088 -0.188213,-0.568717 -0.798284,-0.904432 -1.374393,-0.756314 -0.351625,0.0904 -0.641941,0.332351 -0.789632,0.658077 -0.117181,0.258436 -0.129313,0.555856 -0.03438,0.842718 0.177509,0.536367 0.733113,0.870876 1.286267,0.774414 z m -0.376979,-0.419906 c -0.31848,-0.08648 -0.535797,-0.349869 -0.55781,-0.676053 -0.03444,-0.510283 0.433871,-0.903274 0.927605,-0.77842 0.220773,0.05583 0.394416,0.194773 0.49105,0.392923 0.08631,0.176987 0.102861,0.334705 0.05483,0.522519 -0.08396,0.328272 -0.352551,0.544753 -0.693375,0.558846 -0.100681,0.0042 -0.150279,-2.45e-4 -0.222296,-0.01982 z m 1.50417,-1.685382 c 0.09185,-0.03492 0.163121,-0.142651 0.163121,-0.246561 0,-0.160366 -0.110301,-0.274102 -0.265824,-0.274102 -0.185551,0 -0.311687,0.166099 -0.26032,0.342796 0.04452,0.153155 0.212085,0.235253 0.363023,0.177867 z"
       id="path51" />
  </g>
</svg>
