<svg xmlns="http://www.w3.org/2000/svg" xmlns:xlink="http://www.w3.org/1999/xlink" width="137" height="37"><defs><path id="a" d="M.221.283h107.726V37H.221z"/></defs><g fill="none" fill-rule="evenodd"><path fill="#E72B6A" d="M136.83 21.15c-.135-.126-.319-.176-.458-.137-.036 0-.041.001-4.408 1.316l-1.6.482-.1.043a.526.526 0 0 0-.263.493.54.54 0 0 0 .25.425c.011.006.035.02 2.85 1.232 1.342 2.732 1.357 2.757 1.367 2.772a.532.532 0 0 0 .426.224h.024a.535.535 0 0 0 .475-.287c.012-.027.028-.06.036-.094.074-.287.681-2.615 1.116-4.278.25-.956.442-1.693.444-1.705a.513.513 0 0 0-.159-.485"/><path fill="#4C294C" d="M20.084 15c-1.89 0-3.262 1.223-3.262 2.908v11.51c0 2.146-.426 2.87-1.688 2.87-.43 0-1.737 0-1.737-2.87V18.16c0-.516.06-.793.114-1.04.039-.176.078-.358.078-.569 0-.884-.824-1.551-1.916-1.551-1.89 0-3.262 1.223-3.262 2.908v11.493c-.055 2.428-.636 2.888-1.689 2.888-.43 0-1.737 0-1.737-2.871V18.16c0-.515.061-.792.114-1.038.04-.175.08-.357.08-.57 0-.885-.825-1.552-1.917-1.552C1.372 15 0 16.223 0 17.908v11.51C0 34.308 2.319 37 6.53 37c1.737 0 3.363-.72 4.377-1.91 1.014 1.144 2.73 1.91 4.37 1.91 4.334 0 6.531-2.568 6.531-7.633V18.16c0-.518.06-.794.114-1.039.038-.175.078-.357.078-.57 0-.884-.824-1.551-1.916-1.551"/><g transform="translate(24)"><mask id="b" fill="#fff"><use xlink:href="#a"/></mask><path fill="#4C294C" d="M77.454 25.785c-.028-1.748.456-5.122 1.625-6.366.261-.278.515-.407.8-.407.177 0 .357.37.357 1.076 0 2.39-1.028 4.47-2.782 5.697m28.04-.597c-.937 0-1.643.785-1.888 2.093-.669 3.321-1.628 4.936-2.933 4.936-1.035 0-1.311-1.285-1.311-2.044 0-3.686 1.21-7.845 1.859-10.079.3-1.028.387-1.35.395-1.55.095-.638-.178-1.364-.79-2.103-.513-.62-1.554-1.54-2.312-1.54h-2.61c-.416 0-1.625 0-2.994-.148-.87-2.481-2.857-2.756-3.693-2.756-1.575 0-3.206 1.14-3.206 3.05 0 1.474.743 2.733 2.15 3.653-.036 1.477-.171 5.334-.622 7.629l-.01.04c-.017.089-.036.179-.056.27l-.02.088c-.02.087-.04.175-.063.26a.592.592 0 0 0-.017.088c-.842 3.412-2.62 5.142-5.285 5.142-1.704 0-2.919-.669-3.698-2.04 4.7-1.805 7.156-6.403 7.156-10.14 0-3.553-2.048-5.85-5.216-5.85-4.046 0-8.378 4.827-8.378 12.013 0 .742.069 1.495.205 2.24-.642 2.542-1.517 3.777-2.672 3.777-1.035 0-1.311-1.285-1.311-2.044 0-3.686 1.21-7.845 1.86-10.079.286-.99.385-1.338.394-1.55.095-.638-.177-1.364-.79-2.103-.513-.62-1.553-1.54-2.312-1.54h-2.61c-.415 0-1.625 0-2.994-.148-.87-2.481-2.857-2.756-3.692-2.756-1.577 0-3.207 1.14-3.207 3.05 0 1.474.743 2.733 2.15 3.653-.041 1.69-.203 6.19-.77 8.286a1.77 1.77 0 0 0-.05.245l-.011.05c-.651 3.23-1.579 4.936-2.682 4.936-1 0-1.01-1.57-1.01-1.637l.007-27.095c0-.791.157-1.05.272-1.239.097-.16.23-.38.23-.697 0-.935-1.24-1.266-2.303-1.266-1.975 0-3.408 1.24-3.408 2.947l-.008 27.5c-.493.68-1.968 1.487-3.077 1.487-1.29 0-2.668-1.18-2.668-4.489 0-1.1.028-1.895.087-2.553.371-2.623 1.437-4.336 3.169-5.094 1.157-.507 1.516-1.32 1.065-2.417-.546-1.33-1.74-1.992-3.193-1.771-1.635.25-6.371 3.418-6.336 10.877-.034.497-.05.914-.05 1.315 0 .673.044 1.341.13 1.988-.551 1.422-1.193 2.144-1.91 2.144-.549 0-.608-1.145-.608-1.637V20.037c0-3.663-1.819-5.85-4.864-5.85-1.844 0-3.502 1.056-4.944 3.143-.164-1.544-1.54-2.633-3.39-2.633-1.142 0-2.002.675-2.002 1.572 0 .215.04.399.081.578.056.247.12.527.12 1.051v9.455c-.02.256-.03.517-.04.764-.015.342-.028.665-.064.856-.655 3.244-1.586 3.244-2.765 3.244-1 0-1.012-1.57-1.012-1.637v-7.272c0-1.708-1.432-2.947-3.407-2.947-1.141 0-2.002.676-2.002 1.572 0 .213.041.396.083.581.055.248.118.529.118 1.049v6.575c-.392.967-1.07 2.079-2.116 2.079-1.954 0-2.165-2.427-2.165-3.47 0-6.525 3.818-9.938 7.588-9.938.222 0 .455.024.695.049.25.026.508.052.761.052 1.35 0 1.35-1.364 1.35-1.877 0-1.676-1.236-2.846-3.006-2.846C6.737 14.187.22 19.237.22 28.594c0 5.101 2.62 8.397 6.672 8.397 1.614 0 3.043-.575 4.253-1.712.969 1.094 2.375 1.712 3.931 1.712l.13-.002.014.011.182-.016c.036-.003.1-.003.19-.004.704-.01 2.575-.037 4.18-.895.756-.405 1.271-.735 2.042-1.906.451-.686 1.319-2.895 1.442-3.488.209-1.015.388-1.902.523-2.575.14-.698.27-1.505.332-1.892l.031-.197c.607-3.63 3.334-7.066 4.14-7.066.107 0 .357.214.357 2.197v10.34c0 3.234 2.021 5.493 4.914 5.493 1.83 0 3.433-.732 4.77-2.177 1.248 1.426 2.995 2.177 5.086 2.177 1.558 0 3.781-.523 5.238-1.664.962 1.063 2.362 1.664 3.908 1.664 4.812 0 6.918-5.051 7.747-8.06.018-.04.034-.081.048-.128.764-2.495 1.152-6.24 1.263-8.874h3.562c-1.527 4.341-2.212 7.614-2.212 10.55 0 4.801 3.032 6.512 5.868 6.512 2.266 0 4.166-1.123 5.657-3.34 1.757 2.16 4.236 3.34 7.047 3.34 8.857 0 10.243-8.238 10.424-9.848.496-2.336.756-5.178.842-7.214h3.563c-1.528 4.341-2.212 7.614-2.212 10.55 0 4.801 3.03 6.512 5.867 6.512 2.544 0 5.972-1.469 7.852-8.466l.03-.178c.018-.076.045-.205.045-.364 0-1.358-1.26-2.795-2.453-2.795" mask="url(#b)"/></g></g></svg>