<?xml version="1.0" encoding="UTF-8" standalone="no"?>
<!-- Created with Inkscape (http://www.inkscape.org/) -->

<svg
   width="6.3496699mm"
   height="6.3505883mm"
   viewBox="0 0 6.3496699 6.3505883"
   version="1.1"
   id="svg5"
   xmlns="http://www.w3.org/2000/svg"
   xmlns:svg="http://www.w3.org/2000/svg">
  <defs
     id="defs2" />
  <g
     id="layer1"
     transform="translate(-97.555086,-131.48234)">
    <path
       style="fill:#e72b6a;fill-opacity:1;stroke-width:0.0129649"
       d="m 98.102659,137.82386 c -0.07115,-0.0142 -0.179701,-0.0605 -0.245292,-0.10472 -0.08071,-0.0544 -0.191163,-0.18084 -0.230522,-0.26397 -0.07792,-0.16457 -0.07386,-1.9e-4 -0.07012,-2.83604 l 0.0034,-2.59665 0.03758,-0.0908 c 0.04889,-0.11804 0.09239,-0.18046 0.186528,-0.26761 0.08595,-0.0796 0.186609,-0.13245 0.305534,-0.1605 0.11978,-0.0283 5.160783,-0.0283 5.280563,0 0.11893,0.028 0.21958,0.0809 0.30554,0.1605 0.0941,0.0872 0.13764,0.14957 0.18652,0.26761 l 0.0376,0.0908 0.003,2.59665 c 0.004,2.83583 0.008,2.67147 -0.0701,2.83604 -0.0392,0.0827 -0.14923,0.20898 -0.23052,0.26441 -0.0291,0.0198 -0.0937,0.0529 -0.1436,0.0736 l -0.0907,0.0376 -2.60595,0.002 c -1.433274,10e-4 -2.630202,-0.003 -2.659838,-0.009 z m 3.116281,-1.06117 c 0.57308,-0.1087 1.0503,-0.38249 1.31537,-0.75466 0.16505,-0.23173 0.24264,-0.52715 0.20643,-0.78601 -0.0128,-0.0914 -0.0125,-0.11371 10e-4,-0.12157 0.11005,-0.0623 0.20006,-0.17524 0.23595,-0.2961 0.0655,-0.22071 -0.0374,-0.47615 -0.23423,-0.58104 -0.18562,-0.0989 -0.40644,-0.0799 -0.56867,0.049 l -0.0476,0.0378 -0.0537,-0.0363 c -0.20001,-0.13501 -0.53206,-0.26613 -0.80569,-0.31815 -0.12591,-0.0239 -0.31719,-0.0468 -0.39219,-0.0468 -0.0303,-2e-5 -0.0551,-0.003 -0.0551,-0.007 0,-0.0147 0.26145,-1.1792 0.26571,-1.18346 0.002,-0.002 0.19155,0.038 0.42021,0.0899 l 0.41576,0.0943 0.0149,0.0755 c 0.0246,0.12525 0.11519,0.22985 0.24039,0.27766 0.0747,0.0285 0.22404,0.0196 0.29611,-0.0178 0.22438,-0.11631 0.27478,-0.4214 0.0998,-0.60433 -0.0723,-0.0756 -0.15889,-0.11164 -0.26838,-0.11164 -0.13471,0 -0.21866,0.0453 -0.3271,0.17664 l -0.023,0.0278 -0.45377,-0.10198 c -0.24958,-0.0561 -0.4688,-0.10214 -0.48717,-0.10234 -0.0723,-7.9e-4 -0.078,0.0169 -0.23099,0.71532 -0.0792,0.36154 -0.14401,0.66055 -0.14401,0.66446 0,0.004 -0.0306,0.007 -0.0681,0.007 -0.17452,6e-4 -0.50754,0.0681 -0.725478,0.1471 -0.124008,0.0449 -0.361892,0.15814 -0.425163,0.20233 -0.07806,0.0545 -0.08192,0.0545 -0.153383,8.4e-4 -0.111324,-0.0837 -0.25187,-0.11647 -0.390847,-0.0913 -0.164444,0.0298 -0.288122,0.12409 -0.363401,0.277 -0.105532,0.21437 -0.03739,0.48488 0.156664,0.6219 0.04688,0.0331 0.06864,0.0569 0.0653,0.0713 -0.0028,0.0119 -0.0049,0.10334 -0.0047,0.20317 2.5e-4,0.14324 0.0061,0.20338 0.0279,0.28523 0.156588,0.58883 0.802245,1.04453 1.642558,1.1593 0.0492,0.007 0.22077,0.0104 0.38121,0.008 0.23051,-0.003 0.3222,-0.01 0.437,-0.0316 z m -0.71434,-0.45615 c -0.32556,-0.0452 -0.643165,-0.19954 -0.643165,-0.31264 0,-0.0313 0.05619,-0.0884 0.08692,-0.0883 0.0128,5e-5 0.06507,0.0286 0.116175,0.0634 0.16787,0.11439 0.36444,0.16222 0.66555,0.16194 0.31394,-2.9e-4 0.52662,-0.0541 0.68557,-0.17358 0.0379,-0.0285 0.0803,-0.0519 0.0942,-0.0519 0.0324,0 0.0889,0.0562 0.0889,0.0884 0,0.0933 -0.24829,0.23365 -0.51211,0.28956 -0.13721,0.0291 -0.44954,0.0415 -0.58202,0.0231 z m -0.699342,-0.7776 c -0.06665,-0.0167 -0.176892,-0.0921 -0.212758,-0.14547 -0.137935,-0.20539 -0.05346,-0.4814 0.17345,-0.56673 0.2467,-0.0928 0.50319,0.0858 0.50221,0.34974 -5.5e-4,0.14835 -0.0752,0.26717 -0.21151,0.33671 -0.06118,0.0312 -0.180681,0.0435 -0.251392,0.0258 z m 1.668132,0.002 c -0.0555,-0.0142 -0.14567,-0.0686 -0.18836,-0.11357 -0.0578,-0.0609 -0.093,-0.15548 -0.0932,-0.25074 -5.6e-4,-0.26408 0.2557,-0.44249 0.50234,-0.34974 0.13865,0.0521 0.22796,0.17347 0.23835,0.32381 0.0106,0.15403 -0.0678,0.2903 -0.20732,0.35996 -0.0639,0.0319 -0.18761,0.0468 -0.25185,0.0303 z"
       id="path57" />
  </g>
</svg>
