<svg xmlns="http://www.w3.org/2000/svg" width="148" height="18"><g fill="#999" fill-rule="nonzero"><path d="M74.34 16.94A14.13 14.13 0 0 1 70 16.3a9.522 9.522 0 0 1-3.44-1.91l2.7-3.21a7.98 7.98 0 0 0 2.59 1.36 9.293 9.293 0 0 0 2.7.41c.342.025.685-.034 1-.17a.531.531 0 0 0 .3-.47.63.63 0 0 0-.44-.54 7.738 7.738 0 0 0-1.65-.45 27.46 27.46 0 0 1-2.43-.61 8.32 8.32 0 0 1-2-.88 4.27 4.27 0 0 1-1.39-1.36 3.699 3.699 0 0 1-.52-2 4.769 4.769 0 0 1 .42-2 4.564 4.564 0 0 1 1.23-1.62 5.87 5.87 0 0 1 2-1.08 8.894 8.894 0 0 1 2.75-.39c1.302-.022 2.6.153 3.85.52a9.187 9.187 0 0 1 3 1.55l-2.46 3.41a7.548 7.548 0 0 0-2.28-1.13 7.913 7.913 0 0 0-2.26-.36 1.562 1.562 0 0 0-.83.17.511.511 0 0 0-.27.45.62.62 0 0 0 .41.52 7 7 0 0 0 1.6.45c.892.153 1.773.36 2.64.62a7.798 7.798 0 0 1 2 .94c.54.349.992.818 1.32 1.37.314.58.473 1.23.46 1.89a4.692 4.692 0 0 1-.46 2.22 4.578 4.578 0 0 1-1.34 1.61 6.343 6.343 0 0 1-2.09 1 9.881 9.881 0 0 1-2.77.33z"/><path d="M85.18 5.82h-4.45V1.55h13.95v4.27h-4.45v10.84h-5.05zm10.21-4.27h7.38a10.098 10.098 0 0 1 3.33.45 5.544 5.544 0 0 1 2.1 1.26 4.62 4.62 0 0 1 1 1.55c.24.639.359 1.317.35 2a4.768 4.768 0 0 1-.8 2.8 5.508 5.508 0 0 1-2.18 1.81l3.52 5.14h-5.76l-2.85-4.32h-1.08v4.32h-5.05V1.55h.04zm7.23 7.19a2.322 2.322 0 0 0 1.42-.39 1.28 1.28 0 0 0 .52-1.08c.03-.43-.168-.843-.52-1.09a2.44 2.44 0 0 0-1.4-.36h-2.2v3h2.18v-.08zm36.72 1.42 3.29 6.5h4.84L139.34.61l-8.14 16.05h4.84z"/><path d="m116.7 10.16 3.29 6.5h4.84L116.7.61l-8.12 16.05h4.83zm11.32-2.11-3.29-6.5h-4.84l8.13 16.06 8.13-16.06h-4.84zM.55 16.8v-6.3h2.51a2.247 2.247 0 0 1 1.56.53c.404.374.62.91.59 1.46a1.86 1.86 0 0 1-.58 1.44 2.227 2.227 0 0 1-1.57.53H1.61v2.34H.55zm1.06-3.32H3c.281.008.555-.088.77-.27a.999.999 0 0 0 0-1.49 1.23 1.23 0 0 0-.77-.24H1.61v2zm8.5 3.27c-.32.122-.658.183-1 .18-.342 0-.682-.064-1-.19a2.496 2.496 0 0 1-1.48-1.62 4.753 4.753 0 0 1-.23-1.53 3.332 3.332 0 0 1 .8-2.38 2.548 2.548 0 0 1 1.92-.85 2.518 2.518 0 0 1 1.9.85c.567.663.854 1.52.8 2.39.007.52-.07 1.036-.23 1.53a2.632 2.632 0 0 1-.61 1 2.54 2.54 0 0 1-.87.62zm-2.17-1.37a1.46 1.46 0 0 0 2.32 0c.34-.529.497-1.154.45-1.78a2.639 2.639 0 0 0-.46-1.67 1.432 1.432 0 0 0-2.29 0 2.623 2.623 0 0 0-.46 1.67 2.88 2.88 0 0 0 .44 1.78zm6.28 1.42L13 10.5h1.1l.9 4.43 1.49-4.44h.6l1.49 4.44.86-4.44h1.06l-1.21 6.3h-1.12l-1.42-4.32-1.41 4.33zm8.02 0v-6.3h3.92v1H23.3v1.6h2.61v.9H23.3v1.77h2.86v1h-3.92zm5.91 0v-6.3h2.51a2.28 2.28 0 0 1 1.56.52 2.06 2.06 0 0 1 .21 2.63 1.897 1.897 0 0 1-1 .64l1.36 2.51h-1.21l-1.28-2.42h-1.1v2.42h-1.05zm1.06-3.34h1.37a1 1 0 0 0 0-2h-1.37v2zm5.35 3.34v-6.3h3.92v1h-2.85v1.6h2.61v.9h-2.61v1.77h2.86v1h-3.93zm5.91 0v-6.3h2.06c.342 0 .682.065 1 .19.32.13.612.32.86.56.281.28.493.623.62 1 .16.452.239.93.23 1.41a4.393 4.393 0 0 1-.23 1.5 2.315 2.315 0 0 1-.64 1 2.67 2.67 0 0 1-.88.51c-.323.107-.66.16-1 .16h-2l-.02-.03zm1.06-1h.93c.46.027.91-.148 1.23-.48a2.54 2.54 0 0 0 .44-1.7 2.525 2.525 0 0 0-.45-1.62 1.44 1.44 0 0 0-1.17-.53h-1v4.34l.02-.01zm8.47 1v-6.3h2.59a1.86 1.86 0 0 1 1.34.48c.328.307.51.74.5 1.19a1.32 1.32 0 0 1-.73 1.21c.268.121.501.307.68.54.195.266.293.59.28.92 0 1.287-.77 1.93-2.31 1.93H50v.03zm1-3.72h1.39c.246.016.49-.055.69-.2a.722.722 0 0 0 .24-.59.74.74 0 0 0-.25-.6 1.067 1.067 0 0 0-.7-.21H51v1.6zm0 2.74h1.58c.143-.01.283-.038.42-.08a.78.78 0 0 0 .32-.15.8.8 0 0 0 .19-.28c.058-.14.085-.29.08-.44a.74.74 0 0 0-.35-.73 2.42 2.42 0 0 0-1.06-.14H51v1.85-.03zm6.57.98v-2.66l-2.06-3.64h1.13l1.44 2.68 1.45-2.68h1.13l-2.06 3.65v2.65h-1z"/></g></svg>