<svg xmlns="http://www.w3.org/2000/svg" width="24" height="24"><g fill-rule="nonzero" fill="none"><path d="M21 24H3c-1.656 0-3-1.344-3-3V3c0-1.656 1.344-3 3-3h18c1.656 0 3 1.344 3 3v18c0 1.656-1.344 3-3 3z" fill="#E72B6A"/><path d="M9.218 18.142c5.653 0 8.745-4.676 8.745-8.725 0-.131 0-.263-.006-.394.6-.43 1.12-.975 1.534-1.59a6.242 6.242 0 0 1-1.768.483 3.08 3.08 0 0 0 1.355-1.698 6.129 6.129 0 0 1-1.954.742 3.076 3.076 0 0 0-5.238 2.8 8.74 8.74 0 0 1-6.335-3.208 3.073 3.073 0 0 0 .953 4.096 3.111 3.111 0 0 1-1.39-.382v.041a3.074 3.074 0 0 0 2.463 3.008 3 3 0 0 1-.81.108c-.197 0-.39-.018-.575-.054a3.073 3.073 0 0 0 2.871 2.129 6.176 6.176 0 0 1-3.818 1.315c-.246 0-.491-.012-.731-.041a8.765 8.765 0 0 0 4.705 1.369" fill="#FFF"/></g></svg>